<svg width="36" height="36" viewBox="0 0 36 36" fill="none" xmlns="http://www.w3.org/2000/svg">
<path d="M18 6.72021C16.8667 6.72021 15.7589 7.05627 14.8166 7.68589C13.8743 8.31551 13.1399 9.21042 12.7062 10.2574C12.2725 11.3045 12.159 12.4566 12.3801 13.5681C12.6012 14.6796 13.1469 15.7006 13.9483 16.5019C14.7497 17.3033 15.7706 17.849 16.8822 18.0701C17.9937 18.2912 19.1458 18.1777 20.1928 17.744C21.2398 17.3104 22.1347 16.5759 22.7643 15.6336C23.394 14.6913 23.73 13.5835 23.73 12.4502C23.73 10.9305 23.1263 9.47308 22.0517 8.39849C20.9772 7.32391 19.5197 6.72021 18 6.72021ZM18 16.1802C17.2623 16.1802 16.5411 15.9615 15.9277 15.5516C15.3143 15.1417 14.8363 14.5592 14.554 13.8776C14.2716 13.1961 14.1978 12.4461 14.3417 11.7225C14.4856 10.999 14.8409 10.3344 15.3625 9.81271C15.8842 9.29106 16.5488 8.93581 17.2723 8.79189C17.9959 8.64796 18.7459 8.72183 19.4274 9.00414C20.109 9.28646 20.6915 9.76454 21.1014 10.3779C21.5113 10.9913 21.73 11.7125 21.73 12.4502C21.7274 13.4377 21.3332 14.3839 20.634 15.0813C19.9348 15.7786 18.9875 16.1702 18 16.1702V16.1802Z" fill="black"/>
<path d="M18 2C14.8852 2.0026 11.898 3.23769 9.69078 5.4355C7.4836 7.6333 6.23582 10.6152 6.21997 13.73C6.21997 18.4 8.83997 22.31 10.76 25.16L11.11 25.68C13.0202 28.4486 15.0695 31.1187 17.25 33.68L18.01 34.57L18.77 33.68C20.9501 31.1185 22.9994 28.4484 24.91 25.68L25.26 25.15C27.17 22.3 29.79 18.4 29.79 13.73C29.7741 10.6135 28.525 7.63006 26.3156 5.43197C24.1063 3.23388 21.1165 1.99996 18 2ZM23.59 24L23.23 24.53C21.51 27.11 19.23 30 18 31.43C16.82 30 14.49 27.11 12.77 24.53L12.42 24C10.65 21.36 8.21997 17.75 8.21997 13.69C8.21997 12.4057 8.47294 11.1339 8.96443 9.94736C9.45592 8.76079 10.1763 7.68265 11.0845 6.7745C11.9926 5.86634 13.0708 5.14595 14.2573 4.65446C15.4439 4.16297 16.7156 3.91 18 3.91C19.2843 3.91 20.5561 4.16297 21.7426 4.65446C22.9292 5.14595 24.0073 5.86634 24.9155 6.7745C25.8236 7.68265 26.544 8.76079 27.0355 9.94736C27.527 11.1339 27.78 12.4057 27.78 13.69C27.78 17.79 25.36 21.4 23.59 24Z" fill="black"/>
</svg>
