<svg width="25" height="25" viewBox="0 0 25 25" fill="none" xmlns="http://www.w3.org/2000/svg">
<path d="M12.5 2.73438C17.8971 2.73438 22.2656 7.1021 22.2656 12.5C22.2656 17.8971 17.8979 22.2656 12.5 22.2656C7.10293 22.2656 2.73438 17.8979 2.73438 12.5C2.73438 7.10293 7.1021 2.73438 12.5 2.73438ZM12.5 0.390625C5.81216 0.390625 0.390625 5.81216 0.390625 12.5C0.390625 19.1878 5.81216 24.6094 12.5 24.6094C19.1878 24.6094 24.6094 19.1878 24.6094 12.5C24.6094 5.81216 19.1878 0.390625 12.5 0.390625ZM12.5 8.59375C10.3426 8.59375 8.59375 10.3426 8.59375 12.5C8.59375 14.6574 10.3426 16.4062 12.5 16.4062C14.6574 16.4062 16.4062 14.6574 16.4062 12.5C16.4062 10.3426 14.6574 8.59375 12.5 8.59375Z" fill="url(#paint0_linear_85_5425)" style="mix-blend-mode:multiply"/>
<defs>
<linearGradient id="paint0_linear_85_5425" x1="12.5" y1="0.390625" x2="12.5" y2="24.6094" gradientUnits="userSpaceOnUse">
<stop stop-color="#6246EA"/>
<stop offset="1" stop-color="#6246EA" stop-opacity="0.8"/>
</linearGradient>
</defs>
</svg>
